<svg xmlns="http://www.w3.org/2000/svg" style="display: none;">


    <symbol id="icon-txt" viewBox="0 0 24 24" fill="none" stroke="currentColor" stroke-width="1.5"
        stroke-linecap="round" stroke-linejoin="round">
        <path d="M14 2H6a2 2 0 0 0-2 2v16a2 2 0 0 0 2 2h12a2 2 0 0 0 2-2V8z" />
        <polyline points="14 2 14 8 20 8" />
        <line x1="16" y1="13" x2="8" y2="13" />
        <line x1="16" y1="17" x2="8" y2="17" />
        <polyline points="10 9 9 9 8 9" />
    </symbol>


    <symbol id="icon-folder" viewBox="0 0 24 24" fill="none" stroke="currentColor" stroke-width="1.5"
        stroke-linecap="round" stroke-linejoin="round">
        <path d="M22 19a2 2 0 0 1-2 2H4a2 2 0 0 1-2-2V5a2 2 0 0 1 2-2h5l2 3h9a2 2 0 0 1 2 2z" />
    </symbol>


    <symbol id="icon-contacts" viewBox="0 0 24 24" fill="none" stroke="currentColor" stroke-width="1.5"
        stroke-linecap="round" stroke-linejoin="round">
        <path d="M20 21v-2a4 4 0 0 0-4-4H8a4 4 0 0 0-4 4v2" />
        <circle cx="12" cy="7" r="4" />
    </symbol>

    <symbol id="icon-bin" viewBox="0 0 24 24" fill="none" stroke="currentColor" stroke-width="1.5"
        stroke-linecap="round" stroke-linejoin="round">
        <polyline points="3 6 5 6 21 6" />
        <path d="M19 6v14a2 2 0 0 1-2 2H7a2 2 0 0 1-2-2V6m3 0V4a2 2 0 0 1 2-2h4a2 2 0 0 1 2 2v2" />
        <line x1="10" y1="11" x2="10" y2="17" />
        <line x1="14" y1="11" x2="14" y2="17" />
    </symbol>

</svg>